<?xml version="1.0" encoding="utf-8"?>
<!-- Generator: Adobe Illustrator 27.5.0, SVG Export Plug-In . SVG Version: 6.00 Build 0)  -->
<svg version="1.1" xmlns="http://www.w3.org/2000/svg" xmlns:xlink="http://www.w3.org/1999/xlink" x="0px" y="0px"
	 viewBox="0 0 1250 500" style="enable-background:new 0 0 1250 500;" xml:space="preserve">
<g id="OBJECTS">
	<g>
		<g>
			<path style="fill:#ECDDB5;" d="M824.087,2.26c0-0.76,0.035-1.512,0.085-2.26H39.588C17.724,0,0,17.724,0,39.588v153.215
				c31.582,0.009,57.181,25.613,57.181,57.197c0,31.584-25.599,57.188-57.181,57.197v153.215C0,482.276,17.724,500,39.588,500
				h784.499c0-18.303,14.837-33.14,33.14-33.14V35.4C838.924,35.4,824.087,20.563,824.087,2.26z"/>
			<path style="fill:#ECDDB5;" d="M1250,192.803V39.588C1250,17.724,1232.276,0,1210.412,0H890.281c0.05,0.748,0.085,1.5,0.085,2.26
				c0,18.303-14.837,33.14-33.14,33.14v431.46c18.303,0,33.14,14.837,33.14,33.14h320.045c21.864,0,39.588-17.724,39.588-39.588
				V307.197c-31.584-0.006-57.186-25.611-57.186-57.197S1218.416,192.809,1250,192.803z"/>
		</g>
		<g style="opacity:0.65;">
			<path style="fill:#FFFFFF;" d="M807.843,19c4.943,14.546,16.147,26.226,30.384,31.817v400.627
				c-13.49,5.298-24.259,16.066-29.557,29.557H39.588C28.236,481,19,471.764,19,460.412V323.794
				c32.844-8.469,57.181-38.346,57.181-73.794c0-35.448-24.337-65.325-57.181-73.794V39.588C19,28.236,28.236,19,39.588,19H807.843
				 M824.172,0H39.588C17.724,0,0,17.724,0,39.588v153.215c31.582,0.009,57.181,25.613,57.181,57.197
				c0,31.584-25.599,57.188-57.181,57.197v153.215C0,482.276,17.724,500,39.588,500h784.499c0-18.303,14.837-33.14,33.14-33.14V35.4
				c-18.303,0-33.14-14.837-33.14-33.14C824.087,1.5,824.122,0.748,824.172,0L824.172,0z"/>
		</g>
		<g style="opacity:0.65;">
			<path style="fill:#FFFFFF;" d="M1210.412,19c11.352,0,20.588,9.236,20.588,20.588v136.616
				c-32.846,8.467-57.186,38.345-57.186,73.796s24.339,65.328,57.186,73.796v136.616c0,11.352-9.236,20.588-20.588,20.588H905.784
				c-5.298-13.49-16.066-24.259-29.557-29.556V50.817c14.237-5.591,25.44-17.27,30.384-31.817H1210.412 M1210.412,0H890.281
				c0.05,0.748,0.085,1.5,0.085,2.26c0,18.303-14.837,33.14-33.14,33.14v431.46c18.303,0,33.14,14.837,33.14,33.14h320.045
				c21.864,0,39.588-17.724,39.588-39.588V307.197c-31.584-0.006-57.186-25.611-57.186-57.197c0-31.585,25.602-57.191,57.186-57.197
				V39.588C1250,17.724,1232.276,0,1210.412,0L1210.412,0z"/>
		</g>
	</g>
	<g style="opacity:0.4;">
		<g>
			<g>
				<path d="M475.615,171.447c-2.293-0.602-4.583-1.211-6.879-1.805c-15.533-4.018-31.164-7.727-46.576-12.13
					c-16.588-4.74-28.548,0.247-37.703,13.857c-10.308,15.324-21.691,30.003-31.724,45.482
					c-16.455,25.387-39.831,36.937-70.96,34.018c-5.345-0.501-9.055,0.599-10.822,5.721c-2.355,6.825-7.388,9.064-14.633,7.948
					c-2.664-0.41-5.48-0.314-8.18-0.038c-5.204,0.532-7.25-1.824-6.364-6.351c1.369-6.99-2.229-8.764-8.629-8.302
					c-2.44,0.176-4.92,0.007-7.372-0.151c-17.895-1.151-23.92-8.595-17.899-24.754c14.543-39.03,40.555-69.723,81.291-85.032
					c54.151-20.351,107.815-14.122,159.072,11.072c10.168,4.998,19.103,12.271,28.607,18.495
					C476.435,170.132,476.025,170.789,475.615,171.447z M226.905,240.493c6.491,0.369,13.083,0.142,19.594,0.176
					c6.723,0.035,13.447,0.067,20.171,0.081c13.31,0.029,26.622-0.011,39.93-0.236c3.841-0.065,8.786-3.362,11.193-6.55
					c8.599-11.388,16.495-23.271,24.336-35.159c8.992-13.632,17.643-27.469,27.122-42.279c-33.786-4.598-67.052-5.895-100.197,3.083
					c10.028-0.603,20.05-1.317,30.085-1.779c10.369-0.478,20.759-1.136,31.123-0.933c10.295,0.201,20.569,1.375,32.381,2.233
					c-12.787,18.953-24.563,36.414-36.349,53.869c-4.843,7.173-9.548,15.604-17.292,20.328c-2.625,1.602-6.303,1.84-9.341,2.152
					c-4.927,0.506-9.838,0.858-14.782,0.858c-13.372,0-26.742,0.162-40.114,0.217c-3.43,0.014-6.859,0.021-10.289,0.017
					c-3.268-0.004-6.528-0.237-9.794-0.233c-2.35,0.003-4.844-0.102-7.161-0.483c-0.837-0.138-1.651-0.462-2.451-0.599
					c1.553,2.906,4.646,4.197,7.866,4.792C224.271,240.294,225.627,240.421,226.905,240.493z M267.301,174.112
					c-0.004,0.602-0.008,1.204-0.011,1.805c24.466,0,48.932,0,73.398,0c0.163-0.602,0.327-1.204,0.49-1.805
					C316.553,174.112,291.927,174.112,267.301,174.112z"/>
				<path d="M390.752,207.476c-9.277,3.046-17.284,10.315-23.982,18.954c-7.947,10.249-15.232,20.97-23.343,31.094
					c-6.271,7.827-12.882,15.522-20.218,22.434c-11.124,10.48-24.876,15.777-40.717,15.554c-25.931-0.365-51.899-0.089-77.781-1.374
					c-18.5-0.919-22.715-7.748-18.014-24.813c1.246-4.521,2.721-8.99,4.223-13.442c1.483-4.392,3.134-8.733,5.255-14.6
					c-7.672,10.06-15.452,35.918-14.783,46.55c0.402,6.388,3.531,10.84,9.789,13.11c2.789,1.012,5.727,2.183,8.636,2.286
					c28.902,1.026,57.852,3.136,86.709,2.336c25.807-0.715,44.949-14.692,58.739-35.069c6.059-8.953,10.948-18.651,17.337-27.367
					C371.768,230.624,381.821,218.708,390.752,207.476z"/>
				<path d="M782.679,247.371c-105.383-30.848-210.767-61.696-316.151-92.544c10.864,8.785,20.144,18.85,34.872,22.539
					c92.446,23.158,184.728,46.911,277.068,70.455c1.269,0.324,2.584,0.488,3.877,0.727
					C782.456,248.156,782.568,247.764,782.679,247.371z"/>
				<path d="M413.284,160.434c2.489,8.785,4.49,15.845,7.064,24.931c-0.645-7.413-1.111-12.774-1.708-19.639
					c102.677,24.724,204.301,49.195,305.924,73.665c0.127-0.467,0.253-0.934,0.38-1.401
					C621.686,212.296,518.428,186.6,413.284,160.434z"/>
				<path d="M305.478,268.728c0.21-0.684,0.439-1.367,0.692-2.052c0.787,4.575,1.803,8.846,3.514,13.174
					c-0.085-0.215,3.634-3.486,4.009-4.004c1.049-1.448,1.589-2.974,1.277-4.74c-0.369-2.093-1.953-3.624-2.719-5.566
					c-0.86-2.179-1.432-4.489-1.512-6.821c1.857,2.566,5.171,7.119,8.323,8.182c2.044-3.879,4.088-7.757,6.213-11.788
					c-13.393-3.847-17.095-2.658-23.468,7.369c-3.231,5.084-6.397,10.204-9.556,15.329c-2.914,4.728-5.167,9.223-10.028,12.415
					c3.311,0.947,5.454-0.275,8.612-0.992c3.678-0.836,7.379-1.652,10.904-2.978c1.882-0.708,1.762-7.156,1.962-8.761
					C304.074,274.483,304.598,271.602,305.478,268.728z"/>
				<path d="M305.078,331.126c34.238,2.194,61.226-10.404,82.123-37.585c-6.864-1.733-11.835-1.478-16.757,4.631
					C354.128,318.427,342.744,323.891,305.078,331.126z"/>
				<path d="M201.715,288.86c-0.452-0.194-0.957-4.95-1.099-5.618c-0.345-1.612-0.266-3.076-0.246-4.741
					c0.038-3.154-0.025-7.37,1.464-10.258c0.141,5.109,1.736,12.626,4.314,17.073c0.503-6.402,1.35-12.77,1.685-19.203
					c0.156-3.009,0.438-6.693,1.448-9.21c0.465,4.199,1.024,8.968,2.324,12.966c0.139-1.606,4.816-15.501,4.483-15.602
					c-13.672-4.167-14.155-4.004-18.443,7.415c-1.465,3.901-2.696,7.893-3.809,11.9C191.143,283.269,191.904,284.634,201.715,288.86
					z"/>
				<path d="M169.732,375.253c6.416,10.996,18.13,22.946,31.975,23.024c-0.341-1.586-0.23-3.431-0.323-5.176
					c-3.376-0.772-6.676-2.138-9.586-3.932c-27.266-16.813-26.278-52.571-25.144-79.584c-0.13,3.085-3.148,7.51-3.8,10.819
					c-0.963,4.891-1.285,9.902-1.249,14.873c0.085,11.794,0.802,26.76,6.623,37.324C168.699,373.454,169.2,374.341,169.732,375.253z
					"/>
			</g>
		</g>
		<path d="M220.524,462.956c58.445-15.532,116.895-31.044,175.347-46.552c141.46-37.53,282.925-75.041,424.386-112.565
			c2.365-0.627,4.709-1.33,7.062-1.997c0-1.562,0-3.124,0-4.686c-41.096,8.882-82.191,17.765-123.671,26.73
			c-0.545-3.146-0.927-5.351-1.351-7.799c1.908-0.521,3.432-1.082,5.01-1.346c26.049-4.36,52.088-8.771,78.164-12.978
			c13.915-2.245,27.896-4.124,41.847-6.168c0-0.521,0-1.041,0-1.562c-1.91,0.105-3.847,0.05-5.726,0.337
			c-47.164,7.199-94.31,14.504-141.498,21.555c-4.74,0.708-6.28,3.134-5.738,6.77c0.936,6.289-2.52,7.905-8.096,9.04
			c-48.605,9.887-97.165,19.971-145.728,30.042c-4.112,0.853-8.57,2.535-8.959-3.827c-0.306-5-3.288-11.103,6.134-12.282
			c14.345-1.796,28.608-4.208,42.882-6.492c26.051-4.169,52.084-8.437,78.124-12.663c-0.052-0.381-0.104-0.762-0.155-1.143
			c-2.403,0-4.805,0-8.065,0c0.733-13.185,1.447-26.022,2.234-40.178c62.901,0,124.981,0,187.062,0c0-0.862-0.001-1.723-0.001-2.585
			c-61.385,0-122.77,0-184.625,0c0-9.918,0-18.609,0-27.299c0.546,0.005,1.092,0.01,1.638,0.015
			c0.388,7.948,0.775,15.897,1.191,24.417c63.707,0.605,126.518,1.202,189.328,1.799c0-2.603,0-5.206,0-7.809
			c-1.859-0.422-3.699-0.953-5.58-1.251c-55.721-8.83-111.445-17.644-167.171-26.441c-14.132-2.231-28.276-4.393-42.654-6.624
			c0,12.145,0,23.254,0,34.364c-2.294-10.241-3.054-20.564-4.296-30.835c-0.79-6.534,0.672-8.778,8.379-7.43
			c56.616,9.902,113.325,19.318,169.972,29.06c13.846,2.381,27.569,5.406,41.349,8.135c-3.886-1.553-7.629-3.839-11.678-4.552
			c-119.467-21.046-238.962-41.947-358.462-62.824c-8.048-1.406-16.131-2.79-24.262-3.561c-11.319-1.073-19.929,3.459-24.346,13.486
			c-8.762,19.89-17.06,39.965-25.516,59.977c-1.485,3.515-2.806,7.093-4.238,10.73c78.899,0,156.945,0,235.155,0
			c0,13.898,0,27.815,0,42.598c-34.265,4.974-67.884,9.854-102.133,14.825c-0.131-7.583-4.889-7.795-10.147-6.995
			c-25.62,3.9-51.242,7.795-76.834,11.854c-2.602,0.413-5.881,1.253-7.36,3.021c-5.816,6.957-14.03,7.268-22.087,8.178
			c-29.299,3.309-58.606,6.55-87.908,9.839c-0.716,0.08-1.4,0.419-2.099,0.638c0.08,0.706,0.16,1.411,0.24,2.117
			c32.971-3.077,65.942-6.153,99.861-9.318c-5.92,8.294-11.436,14.462-22.743,14.986c-27.825,1.288-55.575,4.001-83.391,5.548
			c-12.944,0.72-15.489-1.492-16.679-13.811c-1.587-16.422-7.011-32.871,0.022-50.191c-4.66-0.299-8.609-0.709-12.564-0.779
			c-21.863-0.386-43.727-0.733-65.592-1.002c-10.941-0.134-15.704,3.651-15.041,14.58c0.974,16.057,2.816,32.129,5.47,48.015
			c4.222,25.274,2.161,24.085,29.965,25.576c14.454,0.775,28.909,1.55,43.362,2.343c0.24,0.013,0.465,0.26,1.883,1.101
			c-14.811,3.379-28.67,6.602-42.559,9.699c-66.132,14.747-132.272,29.465-198.414,44.172h31.276
			c67.134-15.904,134.261-31.836,201.46-47.488c15.549-3.622,31.508-6.104,47.434-7.689c20.634-2.053,41.438-2.521,62.143-4
			c7.202-0.514,10.955,2.806,13.797,8.738c-2.145,0.655-3.92,1.27-5.736,1.74c-62.804,16.235-125.609,32.462-188.412,48.699H220.524
			z M485.362,216.865c1.014,21.802,1.987,42.702,3.009,64.659c9.72,0,18.784,0,27.847,0c-0.026,0.479-0.052,0.959-0.078,1.439
			c-10.012,0-20.023,0-30.997,0c-1.39-23.466-2.76-46.582-4.201-70.915c11.012,2.122,20.155,3.885,29.299,5.647
			c-0.103,0.645-0.206,1.29-0.309,1.935C501.993,218.736,494.055,217.843,485.362,216.865z M536.286,225.272
			c0,19.161,0,37.46,0,56.516c8.51,0,16.318,0,24.125,0c-0.009,0.378-0.018,0.757-0.028,1.135
			c-8.603,0.394-17.206,0.787-27.479,1.257c0-21.525,0-41.866,0-63.112c8.287,1.405,16.121,2.733,23.956,4.061
			c-0.082,0.602-0.163,1.204-0.245,1.806C549.833,226.38,543.051,225.825,536.286,225.272z M575.147,231.455
			c0,16.889,0,32.905,0,50.025c7.259,0,13.447,0,19.634,0c-0.006,0.353-0.012,0.707-0.018,1.06c-7.207,0-14.413,0-22.611,0
			c0-18.159,0-36.116,0-54.997c7.718,1.373,14.679,2.611,21.64,3.849c-0.082,0.509-0.165,1.017-0.248,1.526
			C587.476,232.435,581.407,231.953,575.147,231.455z M461.496,372.812c2.421,1.365,4.544,3.097,5.701,5.292
			c4.796,9.101,12.624,10.905,20.178,3.704c3.493-3.329,5.509-8.064,8.245-12.238c-0.549,10.964-7.953,20.468-16.489,21.11
			C471.111,391.283,462.655,383.41,461.496,372.812z M386.095,392.66c4.905-1.875,7.254-0.954,9.206,3.509
			c4.402,10.066,13.299,11.353,20.872,3.012c3.13-3.448,4.828-8.075,7.166-12.173c-0.462,10.842-7.206,20.172-15.81,21.871
			C399.058,410.552,391.698,405.093,386.095,392.66z"/>
	</g>
	<g>
		<path style="fill:#B5613C;" d="M824.087,2.26c0-0.76,0.035-1.512,0.085-2.26H39.588C17.724,0,0,17.724,0,39.588v76.195h857.227
			V35.4C838.924,35.4,824.087,20.563,824.087,2.26z"/>
		<path style="fill:#B5613C;" d="M890.281,0c0.05,0.748,0.085,1.5,0.085,2.26c0,18.303-14.837,33.14-33.14,33.14v80.384H1250V39.588
			C1250,17.724,1232.276,0,1210.412,0H890.281z"/>
	</g>
	<g>
		
			<line style="fill:none;stroke:#B5613C;stroke-width:2;stroke-miterlimit:10;" x1="104.681" y1="398.807" x2="765.773" y2="398.807"/>
		
			<line style="fill:none;stroke:#B5613C;stroke-width:2;stroke-miterlimit:10;" x1="224.381" y1="398.514" x2="224.381" y2="460.657"/>
		
			<line style="fill:none;stroke:#B5613C;stroke-width:2;stroke-miterlimit:10;" x1="318.203" y1="398.514" x2="318.203" y2="460.657"/>
	</g>
	<g>
		
			<line style="fill:none;stroke:#B5613C;stroke-width:2;stroke-miterlimit:10;" x1="895.157" y1="398.807" x2="1210.406" y2="398.807"/>
		
			<line style="fill:none;stroke:#B5613C;stroke-width:2;stroke-miterlimit:10;" x1="990.56" y1="398.514" x2="990.56" y2="460.657"/>
		
			<line style="fill:none;stroke:#B5613C;stroke-width:2;stroke-miterlimit:10;" x1="1108.679" y1="398.514" x2="1108.679" y2="460.657"/>
	</g>
	<rect x="438.271" y="398.807" style="fill:#B5613C;" width="134.628" height="61.85"/>
	
		<line style="fill:none;stroke:#B5613C;stroke-width:2;stroke-miterlimit:10;" x1="104.681" y1="216.574" x2="765.773" y2="216.574"/>
	<g>
		<path style="fill:#ECDDB5;" d="M766.905,47.034v34.904H502.429V47.034H766.905 M767.905,46.034H501.429v36.904h266.476V46.034
			L767.905,46.034z"/>
	</g>
	<g>
		<g>
			<polyline style="fill:none;stroke:#B5613C;stroke-width:2;stroke-miterlimit:10;" points="607.499,267.848 607.499,236.515 
				639.529,236.515 			"/>
			<polyline style="fill:none;stroke:#B5613C;stroke-width:2;stroke-miterlimit:10;" points="719.95,236.167 751.283,236.167 
				751.283,268.196 			"/>
		</g>
		<g>
			<polyline style="fill:none;stroke:#B5613C;stroke-width:2;stroke-miterlimit:10;" points="751.283,347.921 751.283,379.254 
				719.254,379.254 			"/>
			<polyline style="fill:none;stroke:#B5613C;stroke-width:2;stroke-miterlimit:10;" points="638.832,379.603 607.499,379.603 
				607.499,347.573 			"/>
		</g>
		<g>
			<rect x="614.608" y="243.762" style="fill:#F6F6F4;" width="129.566" height="128.673"/>
		</g>
		<g>
			<rect x="625.568" y="288.198" style="fill:#302020;" width="4.302" height="13.053"/>
			<rect x="625.568" y="305.548" style="fill:#302020;" width="4.302" height="21.458"/>
			<rect x="634.136" y="288.198" style="fill:#302020;" width="4.302" height="13.053"/>
			<rect x="629.837" y="296.923" style="fill:#302020;" width="4.302" height="13.053"/>
			
				<rect x="634.171" y="279.598" transform="matrix(-1.836970e-16 1 -1 -1.836970e-16 926.6732 -345.971)" style="fill:#302020;" width="4.302" height="21.507"/>
			
				<rect x="659.981" y="279.598" transform="matrix(-1.836970e-16 1 -1 -1.836970e-16 952.483 -371.7808)" style="fill:#302020;" width="4.302" height="21.507"/>
			
				<rect x="660.04" y="288.129" transform="matrix(-1.836970e-16 1 -1 -1.836970e-16 956.8248 -367.5575)" style="fill:#302020;" width="4.302" height="13.009"/>
			
				<rect x="662.219" y="294.618" transform="matrix(-1.836970e-16 1 -1 -1.836970e-16 963.3141 -365.4254)" style="fill:#302020;" width="4.302" height="8.652"/>
			
				<rect x="629.814" y="309.712" transform="matrix(-1.836970e-16 1 -1 -1.836970e-16 956.7299 -333.0204)" style="fill:#302020;" width="30.123" height="4.286"/>
			
				<rect x="647.075" y="292.451" transform="matrix(-1.836970e-16 1 -1 -1.836970e-16 948.2254 -350.2817)" style="fill:#302020;" width="4.357" height="13.042"/>
			
				<rect x="638.548" y="318.446" transform="matrix(-1.836970e-16 1 -1 -1.836970e-16 965.4639 -315.664)" style="fill:#302020;" width="4.032" height="12.908"/>
			
				<rect x="655.775" y="318.446" transform="matrix(-1.836970e-16 1 -1 -1.836970e-16 982.6912 -332.8914)" style="fill:#302020;" width="4.032" height="12.908"/>
			
				<rect x="662.143" y="329.019" transform="matrix(6.123234e-17 -1 1 6.123234e-17 335.2268 1002.0586)" style="fill:#302020;" width="13" height="8.795"/>
			
				<rect x="662.293" y="329.168" transform="matrix(-1.836970e-16 1 -1 -1.836970e-16 1002.2084 -339.409)" style="fill:#302020;" width="17.032" height="4.463"/>
			
				<rect x="672.875" y="326.981" transform="matrix(-1.836970e-16 1 -1 -1.836970e-16 1008.5173 -341.5961)" style="fill:#302020;" width="4.364" height="12.959"/>
			
				<rect x="655.826" y="301.239" transform="matrix(-1.836970e-16 1 -1 -1.836970e-16 974.139 -341.5457)" style="fill:#302020;" width="4.032" height="30.115"/>
			
				<rect x="690.179" y="305.445" transform="matrix(-1.836970e-16 1 -1 -1.836970e-16 1008.4918 -376.0547)" style="fill:#302020;" width="4.188" height="21.547"/>
			
				<rect x="711.73" y="309.763" transform="matrix(-1.836970e-16 1 -1 -1.836970e-16 1030.0425 -397.6054)" style="fill:#302020;" width="4.188" height="12.911"/>
			
				<rect x="705.043" y="311.66" transform="matrix(-1.836970e-16 1 -1 -1.836970e-16 1023.3557 -395.7079)" style="fill:#302020;" width="8.978" height="4.327"/>
			
				<rect x="711.578" y="313.773" transform="matrix(-1.836970e-16 1 -1 -1.836970e-16 1034.1157 -402.2431)" style="fill:#302020;" width="13.203" height="4.327"/>
			
				<rect x="715.894" y="326.986" transform="matrix(6.123234e-17 -1 1 6.123234e-17 393.3567 1051.5031)" style="fill:#302020;" width="13.071" height="4.174"/>
			
				<rect x="724.572" y="327.033" transform="matrix(6.123234e-17 -1 1 6.123234e-17 393.3095 1060.1803)" style="fill:#302020;" width="4.347" height="12.804"/>
			
				<rect x="724.572" y="339.986" transform="matrix(6.123234e-17 -1 1 6.123234e-17 380.3569 1073.1329)" style="fill:#302020;" width="4.347" height="12.804"/>
			
				<rect x="726.788" y="316.112" transform="matrix(-1.836970e-16 1 -1 -1.836970e-16 1049.3254 -412.7753)" style="fill:#302020;" width="8.525" height="4.327"/>
			
				<rect x="720.259" y="348.545" transform="matrix(-1.836970e-16 1 -1 -1.836970e-16 1081.7592 -380.3416)" style="fill:#302020;" width="21.582" height="4.327"/>
			
				<rect x="715.927" y="348.539" transform="matrix(-1.836970e-16 1 -1 -1.836970e-16 1077.4263 -358.7892)" style="fill:#302020;" width="4.362" height="21.559"/>
			
				<rect x="715.913" y="344.289" transform="matrix(-1.836970e-16 1 -1 -1.836970e-16 1068.8992 -375.9951)" style="fill:#302020;" width="13.068" height="4.327"/>
			
				<rect x="702.957" y="344.289" transform="matrix(-1.836970e-16 1 -1 -1.836970e-16 1055.9434 -363.0394)" style="fill:#302020;" width="13.068" height="4.327"/>
			
				<rect x="711.73" y="348.584" transform="matrix(6.123234e-17 -1 1 6.123234e-17 358.7443 1068.8678)" style="fill:#302020;" width="4.151" height="12.955"/>
			
				<rect x="692.347" y="350.762" transform="matrix(6.123234e-17 -1 1 6.123234e-17 339.3604 1049.4839)" style="fill:#302020;" width="4.151" height="8.6"/>
			
				<rect x="679.513" y="350.762" transform="matrix(6.123234e-17 -1 1 6.123234e-17 326.5273 1036.6508)" style="fill:#302020;" width="4.151" height="8.6"/>
			
				<rect x="675.143" y="355.132" transform="matrix(6.123234e-17 -1 1 6.123234e-17 322.1567 1036.5956)" style="fill:#302020;" width="8.467" height="4.175"/>
			
				<rect x="685.823" y="344.398" transform="matrix(-1.836970e-16 1 -1 -1.836970e-16 1038.8096 -337.1217)" style="fill:#302020;" width="4.284" height="12.893"/>
			
				<rect x="720.252" y="309.75" transform="matrix(-1.836970e-16 1 -1 -1.836970e-16 1038.6488 -414.8209)" style="fill:#302020;" width="12.966" height="4.327"/>
			
				<rect x="705.231" y="316.129" transform="matrix(6.123234e-17 -1 1 6.123234e-17 386.9183 1027.8102)" style="fill:#302020;" width="4.266" height="8.634"/>
			
				<rect x="658.016" y="298.79" transform="matrix(-1.836970e-16 1 -1 -1.836970e-16 967.429 -352.6344)" style="fill:#302020;" width="4.032" height="17.214"/>
			
				<rect x="701.028" y="303.06" transform="matrix(-1.836970e-16 1 -1 -1.836970e-16 1010.4416 -395.647)" style="fill:#302020;" width="4.032" height="8.675"/>
			
				<rect x="722.632" y="303.06" transform="matrix(-1.836970e-16 1 -1 -1.836970e-16 1032.0453 -417.2507)" style="fill:#302020;" width="4.032" height="8.675"/>
			
				<rect x="666.321" y="311.734" transform="matrix(-1.836970e-16 1 -1 -1.836970e-16 984.6339 -356.911)" style="fill:#302020;" width="8.903" height="4.255"/>
			
				<rect x="668.837" y="300.946" transform="matrix(6.123234e-17 -1 1 6.123234e-17 371.9539 978.2466)" style="fill:#302020;" width="12.527" height="4.401"/>
			
				<rect x="686.007" y="300.946" transform="matrix(6.123234e-17 -1 1 6.123234e-17 389.1246 995.4173)" style="fill:#302020;" width="12.527" height="4.4"/>
			
				<rect x="701.078" y="303.04" transform="matrix(6.123234e-17 -1 1 6.123234e-17 400.0071 1010.488)" style="fill:#302020;" width="8.339" height="4.4"/>
			
				<rect x="709.663" y="303.04" transform="matrix(6.123234e-17 -1 1 6.123234e-17 408.5924 1019.0733)" style="fill:#302020;" width="8.339" height="4.4"/>
			
				<rect x="716.033" y="296.87" transform="matrix(-1.836970e-16 1 -1 -1.836970e-16 1017.1043 -419.1628)" style="fill:#302020;" width="4.2" height="4.201"/>
			
				<rect x="716.033" y="288.339" transform="matrix(-1.836970e-16 1 -1 -1.836970e-16 1008.5728 -427.6944)" style="fill:#302020;" width="4.2" height="4.201"/>
			
				<rect x="698.791" y="288.339" transform="matrix(-1.836970e-16 1 -1 -1.836970e-16 991.3305 -410.4521)" style="fill:#302020;" width="4.2" height="4.201"/>
			
				<rect x="685.815" y="288.339" transform="matrix(-1.836970e-16 1 -1 -1.836970e-16 978.3539 -397.4755)" style="fill:#302020;" width="4.2" height="4.201"/>
			
				<rect x="681.49" y="284.015" transform="matrix(-1.836970e-16 1 -1 -1.836970e-16 969.8282 -397.4821)" style="fill:#302020;" width="4.33" height="4.317"/>
			
				<rect x="683.588" y="277.58" transform="matrix(-1.836970e-16 1 -1 -1.836970e-16 967.5953 -408.234)" style="fill:#302020;" width="8.654" height="4.201"/>
			
				<rect x="692.227" y="281.776" transform="matrix(6.123234e-17 -1 1 6.123234e-17 412.5997 980.5663)" style="fill:#302020;" width="8.711" height="4.415"/>
			
				<rect x="685.763" y="271.016" transform="matrix(-1.836970e-16 1 -1 -1.836970e-16 965.391 -410.5045)" style="fill:#302020;" width="4.369" height="12.855"/>
			
				<rect x="672.919" y="283.982" transform="matrix(6.123234e-17 -1 1 6.123234e-17 393.2916 965.5023)" style="fill:#302020;" width="12.955" height="4.246"/>
			
				<rect x="694.424" y="270.94" transform="matrix(6.123234e-17 -1 1 6.123234e-17 423.4349 969.6826)" style="fill:#302020;" width="4.27" height="4.367"/>
			
				<rect x="679.355" y="268.824" transform="matrix(6.123234e-17 -1 1 6.123234e-17 408.3662 954.614)" style="fill:#302020;" width="4.27" height="8.599"/>
			
				<rect x="668.599" y="262.397" transform="matrix(-1.836970e-16 1 -1 -1.836970e-16 939.5879 -410.5315)" style="fill:#302020;" width="12.921" height="4.262"/>
			
				<rect x="657.752" y="277.503" transform="matrix(-1.836970e-16 1 -1 -1.836970e-16 941.7172 -382.449)" style="fill:#302020;" width="8.663" height="4.262"/>
			
				<rect x="664.252" y="275.289" transform="matrix(-1.836970e-16 1 -1 -1.836970e-16 948.2172 -393.263)" style="fill:#302020;" width="12.977" height="4.377"/>
			
				<rect x="657.878" y="260.316" transform="matrix(-1.836970e-16 1 -1 -1.836970e-16 928.8671 -403.974)" style="fill:#302020;" width="17.085" height="4.262"/>
			
				<rect x="677.093" y="253.904" transform="matrix(-1.836970e-16 1 -1 -1.836970e-16 939.5464 -419.025)" style="fill:#302020;" width="4.386" height="12.714"/>
			
				<rect x="692.161" y="255.914" transform="matrix(-1.836970e-16 1 -1 -1.836970e-16 954.6143 -434.0929)" style="fill:#302020;" width="4.386" height="8.693"/>
			
				<rect x="692.258" y="256.012" transform="matrix(-1.836970e-16 1 -1 -1.836970e-16 954.7122 -438.3943)" style="fill:#302020;" width="8.59" height="4.293"/>
			
				<rect x="666.488" y="260.26" transform="matrix(6.123234e-17 -1 1 6.123234e-17 404.0338 933.1886)" style="fill:#302020;" width="4.247" height="8.635"/>
			
				<rect x="662.109" y="256.012" transform="matrix(6.123234e-17 -1 1 6.123234e-17 403.9028 924.5621)" style="fill:#302020;" width="4.247" height="8.635"/>
			
				<rect x="662.089" y="264.528" transform="matrix(6.123234e-17 -1 1 6.123234e-17 395.3871 933.0778)" style="fill:#302020;" width="4.287" height="8.635"/>
			
				<rect x="690.057" y="266.675" transform="matrix(6.123234e-17 -1 1 6.123234e-17 423.3342 961.0505)" style="fill:#302020;" width="4.27" height="4.367"/>
			
				<rect x="685.691" y="262.405" transform="matrix(6.123234e-17 -1 1 6.123234e-17 423.2374 952.4151)" style="fill:#302020;" width="4.27" height="4.367"/>
			
				<rect x="703.068" y="292.502" transform="matrix(6.123234e-17 -1 1 6.123234e-17 414.7934 1004.1974)" style="fill:#302020;" width="12.855" height="4.4"/>
			
				<rect x="720.274" y="292.502" transform="matrix(6.123234e-17 -1 1 6.123234e-17 431.9999 1021.4039)" style="fill:#302020;" width="12.855" height="4.4"/>
			
				<rect x="724.604" y="301.176" transform="matrix(-1.836970e-16 1 -1 -1.836970e-16 1034.39 -427.7259)" style="fill:#302020;" width="12.908" height="4.312"/>
			
				<rect x="681.34" y="305.371" transform="matrix(-1.836970e-16 1 -1 -1.836970e-16 995.4736 -371.9298)" style="fill:#302020;" width="4.724" height="12.802"/>
			
				<rect x="694.245" y="309.629" transform="matrix(-1.836970e-16 1 -1 -1.836970e-16 1008.3784 -384.8345)" style="fill:#302020;" width="4.724" height="4.286"/>
			
				<rect x="675.067" y="294.715" transform="matrix(6.123234e-17 -1 1 6.123234e-17 378.1845 976.1418)" style="fill:#302020;" width="4.192" height="8.526"/>
			
				<rect x="674.986" y="320.418" transform="matrix(6.123234e-17 -1 1 6.123234e-17 356.674 1001.9097)" style="fill:#302020;" width="8.611" height="4.401"/>
			
				<rect x="679.259" y="316.145" transform="matrix(6.123234e-17 -1 1 6.123234e-17 360.9465 1001.7629)" style="fill:#302020;" width="4.192" height="8.526"/>
			
				<rect x="698.63" y="309.492" transform="matrix(-1.836970e-16 1 -1 -1.836970e-16 1025.5165 -376.126)" style="fill:#302020;" width="4.382" height="30.407"/>
			
				<rect x="709.47" y="333.441" transform="matrix(6.123234e-17 -1 1 6.123234e-17 382.5839 1053.7845)" style="fill:#302020;" width="17.428" height="4.319"/>
			
				<rect x="687.89" y="333.441" transform="matrix(6.123234e-17 -1 1 6.123234e-17 361.004 1032.2046)" style="fill:#302020;" width="17.428" height="4.319"/>
			
				<rect x="705.144" y="333.441" transform="matrix(6.123234e-17 -1 1 6.123234e-17 378.2583 1049.4589)" style="fill:#302020;" width="17.428" height="4.319"/>
			
				<rect x="700.854" y="329.143" transform="matrix(6.123234e-17 -1 1 6.123234e-17 360.9475 1045.1681)" style="fill:#302020;" width="4.408" height="25.934"/>
			
				<rect x="681.488" y="340.092" transform="matrix(-1.836970e-16 1 -1 -1.836970e-16 1030.1827 -337.174)" style="fill:#302020;" width="4.38" height="12.825"/>
			
				<rect x="694.503" y="292.532" transform="matrix(6.123234e-17 -1 1 6.123234e-17 397.61 995.5884)" style="fill:#302020;" width="4.192" height="12.914"/>
			
				<rect x="655.703" y="309.719" transform="matrix(-1.836970e-16 1 -1 -1.836970e-16 974.0158 -350.3225)" style="fill:#302020;" width="12.932" height="4.255"/>
			
				<rect x="651.338" y="348.561" transform="matrix(-1.836970e-16 1 -1 -1.836970e-16 1012.8055 -311.4294)" style="fill:#302020;" width="21.559" height="4.255"/>
			
				<rect x="664.296" y="352.814" transform="matrix(-1.836970e-16 1 -1 -1.836970e-16 1025.7639 -307.1763)" style="fill:#302020;" width="4.347" height="12.96"/>
			
				<rect x="664.387" y="352.863" transform="matrix(-1.836970e-16 1 -1 -1.836970e-16 1025.8545 -315.8737)" style="fill:#302020;" width="12.954" height="4.255"/>
			
				<rect x="640.739" y="316.623" transform="matrix(-1.836970e-16 1 -1 -1.836970e-16 963.6407 -321.8705)" style="fill:#302020;" width="4.032" height="8.525"/>
			
				<rect x="644.929" y="298.886" transform="matrix(-1.836970e-16 1 -1 -1.836970e-16 950.3146 -343.8459)" style="fill:#302020;" width="4.302" height="8.696"/>
			
				<rect x="668.65" y="296.745" transform="matrix(-1.836970e-16 1 -1 -1.836970e-16 974.0356 -367.5668)" style="fill:#302020;" width="4.302" height="12.978"/>
			
				<rect x="690.123" y="296.745" transform="matrix(-1.836970e-16 1 -1 -1.836970e-16 995.5079 -389.0391)" style="fill:#302020;" width="4.302" height="12.978"/>
			
				<rect x="629.842" y="292.709" transform="matrix(-1.836970e-16 1 -1 -1.836970e-16 931.1266 -332.8594)" style="fill:#302020;" width="4.302" height="12.849"/>
			<g>
				<rect x="625.568" y="253.856" style="fill:#302020;" width="4.302" height="30.111"/>
				<rect x="651.378" y="253.856" style="fill:#302020;" width="4.302" height="30.111"/>
				
					<rect x="638.473" y="240.952" transform="matrix(-1.836970e-16 1 -1 -1.836970e-16 896.6313 -384.6169)" style="fill:#302020;" width="4.302" height="30.111"/>
				
					<rect x="638.473" y="266.762" transform="matrix(-1.836970e-16 1 -1 -1.836970e-16 922.4417 -358.8065)" style="fill:#302020;" width="4.302" height="30.111"/>
				<rect x="634.1" y="262.316" style="fill:#302020;" width="12.977" height="12.977"/>
			</g>
			<g>
				<rect x="625.568" y="331.393" style="fill:#302020;" width="4.302" height="30.111"/>
				<rect x="651.378" y="331.393" style="fill:#302020;" width="4.302" height="30.111"/>
				
					<rect x="638.473" y="318.488" transform="matrix(-1.836970e-16 1 -1 -1.836970e-16 974.1681 -307.0801)" style="fill:#302020;" width="4.302" height="30.111"/>
				
					<rect x="638.473" y="344.299" transform="matrix(-1.836970e-16 1 -1 -1.836970e-16 999.9785 -281.2697)" style="fill:#302020;" width="4.302" height="30.111"/>
				<rect x="634.1" y="339.853" style="fill:#302020;" width="12.977" height="12.976"/>
			</g>
			<g>
				<rect x="702.998" y="253.856" style="fill:#302020;" width="4.302" height="30.111"/>
				<rect x="728.807" y="253.856" style="fill:#302020;" width="4.302" height="30.111"/>
				
					<rect x="715.902" y="240.952" transform="matrix(-1.836970e-16 1 -1 -1.836970e-16 974.0606 -462.0461)" style="fill:#302020;" width="4.302" height="30.111"/>
				
					<rect x="715.903" y="266.762" transform="matrix(-1.836970e-16 1 -1 -1.836970e-16 999.8709 -436.2357)" style="fill:#302020;" width="4.302" height="30.111"/>
				<rect x="711.529" y="262.316" style="fill:#302020;" width="12.977" height="12.977"/>
			</g>
			
				<rect x="685.892" y="335.708" transform="matrix(-1.836970e-16 1 -1 -1.836970e-16 1025.8003 -350.1833)" style="fill:#302020;" width="4.2" height="4.201"/>
			
				<rect x="703.092" y="331.378" transform="matrix(-1.836970e-16 1 -1 -1.836970e-16 1038.6713 -371.7135)" style="fill:#302020;" width="4.2" height="4.201"/>
		</g>
	</g>
	
		<line style="fill:none;stroke:#302020;stroke-width:2;stroke-linecap:round;stroke-miterlimit:10;stroke-dasharray:5,7;" x1="857.259" y1="45.155" x2="857.259" y2="454.845"/>
</g>
<g id="TEXTS">
	
		<text transform="matrix(1 0 0 1 925.7492 92.7945)" style="fill:#ECDDB5; font-family:'LeagueGothic-Regular'; font-size:65.0891px;">TRAIN TICKET</text>
	
		<text transform="matrix(1 0 0 1 123.4828 82.7644)" style="fill:#ECDDB5; font-family:'LeagueGothic-Regular'; font-size:49.8372px;">TRAIN TICKET</text>
	<text transform="matrix(1 0 0 1 905.5291 167.9336)"><tspan x="0" y="0" style="fill:#302020; font-family:'RobotoCondensed-Bold'; font-size:18.9849px; letter-spacing:1;">NAME OF PASSENGER</tspan><tspan x="0" y="33.6" style="fill:#302020; font-family:'RobotoCondensed-Regular'; font-size:28px; letter-spacing:2;">JOHN SMITH</tspan><tspan x="0" y="89.982" style="fill:#302020; font-family:'RobotoCondensed-Bold'; font-size:18.9849px; letter-spacing:1;">FROM:</tspan><tspan x="0" y="123.582" style="fill:#302020; font-family:'RobotoCondensed-Regular'; font-size:28px; letter-spacing:2;">BARCELONA</tspan><tspan x="0" y="169.145" style="fill:#302020; font-family:'RobotoCondensed-Bold'; font-size:18.9849px; letter-spacing:1;">TO:</tspan><tspan x="0" y="202.746" style="fill:#302020; font-family:'RobotoCondensed-Regular'; font-size:28px; letter-spacing:2;">MADRID</tspan></text>
	<text transform="matrix(1 0 0 1 123.0339 167.9336)"><tspan x="0" y="0" style="fill:#302020; font-family:'RobotoCondensed-Bold'; font-size:18.9849px; letter-spacing:1;">NAME OF PASSENGER</tspan><tspan x="0" y="33.6" style="fill:#302020; font-family:'RobotoCondensed-Regular'; font-size:28px; letter-spacing:2;">JOHN SMITH</tspan><tspan x="0" y="89.982" style="fill:#302020; font-family:'RobotoCondensed-Bold'; font-size:18.9849px; letter-spacing:1;">FROM:</tspan><tspan x="0" y="123.582" style="fill:#302020; font-family:'RobotoCondensed-Regular'; font-size:28px; letter-spacing:2;">BARCELONA</tspan><tspan x="0" y="169.145" style="fill:#302020; font-family:'RobotoCondensed-Bold'; font-size:18.9849px; letter-spacing:1;">TO:</tspan><tspan x="0" y="202.746" style="fill:#302020; font-family:'RobotoCondensed-Regular'; font-size:28px; letter-spacing:2;">MADRID</tspan></text>
	<g>
		<text transform="matrix(1 0 0 1 908.9407 424.943)"><tspan x="0" y="0" style="fill:#302020; font-family:'RobotoCondensed-Bold'; font-size:14.4665px; letter-spacing:1;">TRAIN</tspan><tspan x="0" y="22.8" style="fill:#302020; font-family:'RobotoCondensed-Regular'; font-size:19px; letter-spacing:1;">0123</tspan></text>
	</g>
	<g>
		<text transform="matrix(1 0 0 1 452.4424 252.3674)"><tspan x="0" y="0" style="fill:#302020; font-family:'RobotoCondensed-Bold'; font-size:14.4665px; letter-spacing:1;">TRAIN</tspan><tspan x="0" y="22.8" style="fill:#302020; font-family:'RobotoCondensed-Regular'; font-size:19px; letter-spacing:1;">0123</tspan><tspan x="0" y="50.6" style="fill:#302020; font-family:'RobotoCondensed-Bold'; font-size:14.4665px; letter-spacing:1;">CARRIAGE</tspan><tspan x="0" y="73.4" style="fill:#302020; font-family:'RobotoCondensed-Regular'; font-size:19px; letter-spacing:1;">07</tspan><tspan x="0" y="101.2" style="fill:#302020; font-family:'RobotoCondensed-Bold'; font-size:14.4665px; letter-spacing:1;">SEAT</tspan><tspan x="0" y="124" style="fill:#302020; font-family:'RobotoCondensed-Regular'; font-size:19px; letter-spacing:1;">A21</tspan></text>
	</g>
	<g>
		<text transform="matrix(1 0 0 1 122.9716 425.2513)"><tspan x="0" y="0" style="fill:#302020; font-family:'RobotoCondensed-Bold'; font-size:14.4665px; letter-spacing:1;">DATE</tspan><tspan x="0" y="22.8" style="fill:#302020; font-family:'RobotoCondensed-Regular'; font-size:19px; letter-spacing:1;">10 JUNE</tspan></text>
	</g>
	<g>
		<text transform="matrix(1 0 0 1 234.7054 425.2513)"><tspan x="0" y="0" style="fill:#302020; font-family:'RobotoCondensed-Bold'; font-size:14.4665px; letter-spacing:1;">DEPATURE</tspan><tspan x="0" y="22.8" style="fill:#302020; font-family:'RobotoCondensed-Regular'; font-size:19px; letter-spacing:1;">10:00</tspan></text>
	</g>
	<g>
		<text transform="matrix(1 0 0 1 346.4391 425.2513)"><tspan x="0" y="0" style="fill:#302020; font-family:'RobotoCondensed-Bold'; font-size:14.4665px; letter-spacing:1;">ARRIVE</tspan><tspan x="0" y="22.8" style="fill:#302020; font-family:'RobotoCondensed-Regular'; font-size:19px; letter-spacing:1;">11:30</tspan></text>
	</g>
	<text transform="matrix(1 0 0 1 452.9984 422.749)"><tspan x="0" y="0" style="fill:#ECDDB5; font-family:'RobotoCondensed-Bold'; font-size:17.4897px; letter-spacing:1;">PRICE</tspan><tspan x="0" y="26" style="fill:#ECDDB5; font-family:'RobotoCondensed-Regular'; font-size:27px; letter-spacing:2;">30 EURO</tspan></text>
	<text transform="matrix(1 0 0 1 518.6727 75.0451)"><tspan x="0" y="0" style="fill:#ECDDB5; font-family:'RobotoCondensed-Bold'; font-size:27.8868px; letter-spacing:2;">T1 </tspan><tspan x="42.443" y="0" style="fill:#ECDDB5; font-family:'RobotoCondensed-Regular'; font-size:27.8796px; letter-spacing:2;">0123456789-A</tspan></text>
	<g>
		<text transform="matrix(1 0 0 1 1014.6887 424.943)"><tspan x="0" y="0" style="fill:#302020; font-family:'RobotoCondensed-Bold'; font-size:14.4665px; letter-spacing:1;">CARRIAGE</tspan><tspan x="0" y="22.8" style="fill:#302020; font-family:'RobotoCondensed-Regular'; font-size:19px; letter-spacing:1;">07</tspan></text>
	</g>
	<g>
		<text transform="matrix(1 0 0 1 1135.4824 424.943)"><tspan x="0" y="0" style="fill:#302020; font-family:'RobotoCondensed-Bold'; font-size:14.4665px; letter-spacing:1;">SEAT</tspan><tspan x="0" y="22.8" style="fill:#302020; font-family:'RobotoCondensed-Regular'; font-size:19px; letter-spacing:1;">A21</tspan></text>
	</g>
	<text transform="matrix(1 0 0 1 440.9431 167.9336)"><tspan x="0" y="0" style="fill:#302020; font-family:'RobotoCondensed-Bold'; font-size:18.9849px; letter-spacing:1;">INFORMATION</tspan><tspan x="0" y="33.6" style="fill:#302020; font-family:'RobotoCondensed-Regular'; font-size:28px; letter-spacing:2;">ECONOMY CLASS</tspan></text>
	<rect x="581.874" y="408.603" style="fill:none;" width="179.364" height="55.912"/>
	<text transform="matrix(1 0 0 1 581.874 413.5726)"><tspan x="0" y="0" style="fill:#B5613C; font-family:'RobotoCondensed-Regular'; font-size:7px;">Lorem ipsum dolor sit amet, consectetuer adipis </tspan><tspan x="0" y="8.4" style="fill:#B5613C; font-family:'RobotoCondensed-Regular'; font-size:7px;">cing elit, sed diam nonummy nibh euismod tincid</tspan><tspan x="0" y="16.8" style="fill:#B5613C; font-family:'RobotoCondensed-Regular'; font-size:7px;">ut laoreet dolore magna aliquam erat volutpat.</tspan><tspan x="0" y="33.601" style="fill:#B5613C; font-family:'RobotoCondensed-Regular'; font-size:7px;">Ut wisi enim ad minim veniam, quis nostrud </tspan><tspan x="0" y="42" style="fill:#B5613C; font-family:'RobotoCondensed-Regular'; font-size:7px;">exerci tation ullamcorper suscipit lobortis nisl ut </tspan><tspan x="0" y="50.4" style="fill:#B5613C; font-family:'RobotoCondensed-Regular'; font-size:7px;">aliqui.</tspan></text>
</g>
</svg>
